<mxfile host="app.diagrams.net" modified="2023-04-24T06:47:05.426Z" agent="Mozilla/5.0 (Macintosh; Intel Mac OS X 10_15_7) AppleWebKit/537.36 (KHTML, like Gecko) Chrome/112.0.0.0 Safari/537.36" version="21.2.1" etag="z3d4MTGiqT5Wbpi7hqdP" type="github">
  <diagram name="페이지-1" id="uCJWW6S73reCHDE6NtwS">
    <mxGraphModel>
      <root>
        <mxCell id="0" />
        <mxCell id="1" parent="0" />
      </root>
    </mxGraphModel>
  </diagram>
</mxfile>
